<?xml version="1.0" standalone="no"?>
<!DOCTYPE svg PUBLIC "-//W3C//DTD SVG 20010904//EN"
 "http://www.w3.org/TR/2001/REC-SVG-20010904/DTD/svg10.dtd">
<svg version="1.0" xmlns="http://www.w3.org/2000/svg"
 width="192.000000pt" height="192.000000pt" viewBox="0 0 192.000000 192.000000"
 preserveAspectRatio="xMidYMid meet">
<metadata>
Created by potrace 1.11, written by Peter Selinger 2001-2013
</metadata>
<g transform="translate(0.000000,192.000000) scale(0.100000,-0.100000)"
fill="#000000" stroke="none">
<path d="M770 1905 c-356 -74 -626 -324 -737 -683 -25 -80 -27 -100 -27 -262
0 -161 3 -182 27 -262 101 -332 333 -564 662 -664 82 -25 104 -28 260 -28 148
-1 180 2 248 22 114 33 192 68 282 126 199 131 329 306 401 541 26 84 28 102
28 265 0 163 -2 181 -28 264 -101 331 -334 564 -661 662 -77 23 -111 27 -240
29 -98 2 -173 -1 -215 -10z m124 -107 c38 -60 40 -95 41 -793 1 -374 -2 -710
-6 -748 -5 -37 -17 -88 -29 -114 l-20 -46 -43 7 c-104 17 -238 68 -340 129
l-49 30 47 23 c140 71 244 184 290 313 42 119 47 196 51 716 1 275 3 501 4
503 0 1 9 2 20 2 11 0 26 -10 34 -22z m201 -838 l0 -855 -35 -3 -35 -3 1 858
c1 472 2 859 3 861 0 2 16 2 34 0 l32 -3 0 -855z m-359 767 c6 -40 6 -875 1
-902 -3 -11 -8 -45 -12 -75 -7 -55 -45 -164 -74 -210 -53 -87 -210 -230 -252
-230 -25 0 -169 167 -169 196 0 4 -7 15 -14 23 -23 25 -75 154 -97 240 -57
217 -11 457 129 676 86 134 222 244 386 311 89 36 93 35 102 -29z m589 13 c60
-28 159 -89 163 -101 2 -5 8 -9 13 -9 14 0 69 -52 69 -64 0 -6 -63 -94 -139
-195 l-138 -183 80 -147 c43 -80 94 -173 111 -206 18 -33 67 -123 109 -201 43
-77 77 -146 77 -153 0 -15 -38 -71 -48 -71 -4 0 -20 26 -37 57 -16 32 -42 78
-56 103 -14 25 -49 90 -79 145 -29 55 -62 115 -72 133 -35 63 -112 207 -122
229 -14 29 -23 29 -47 1 -20 -23 -20 -21 -14 277 6 342 4 315 17 377 9 44 10
46 36 38 15 -4 50 -18 77 -30z m344 -289 c12 -16 21 -33 21 -37 0 -4 7 -15 14
-23 22 -25 72 -147 96 -236 24 -88 33 -242 19 -302 -5 -21 -12 -54 -15 -73 -3
-19 -11 -44 -17 -55 -6 -11 -10 -22 -9 -25 3 -9 -20 -74 -33 -93 -10 -15 -20
-2 -75 100 -35 65 -76 141 -90 168 -15 28 -58 105 -95 173 -50 92 -65 128 -59
141 14 29 208 290 216 291 4 0 16 -13 27 -29z m-129 -1126 c0 -23 -192 -142
-283 -174 -27 -10 -29 -8 -45 27 -14 32 -17 91 -20 422 l-3 385 175 -325 c97
-179 176 -329 176 -335z"/>
</g>
</svg>
