<?xml version="1.0" encoding="utf-8"?>
<!-- Generator: Adobe Illustrator 16.0.0, SVG Export Plug-In . SVG Version: 6.00 Build 0)  -->
<!DOCTYPE svg PUBLIC "-//W3C//DTD SVG 1.1//EN" "http://www.w3.org/Graphics/SVG/1.1/DTD/svg11.dtd">
<svg version="1.1" id="Layer_1" xmlns="http://www.w3.org/2000/svg" xmlns:xlink="http://www.w3.org/1999/xlink" x="0px" y="0px"
	 width="192px" height="192px" viewBox="0 0 192 192" enable-background="new 0 0 192 192" xml:space="preserve">
<g transform="translate(0.000000,192.000000) scale(0.100000,-0.100000)">
	<path fill="#7892B3" d="M770,1905c-356.001-73.999-626.001-323.999-737.002-682.998c-25-80-26.997-100-26.997-262.002
		c0-160.996,2.998-182.002,26.997-262.002C133.999,365.996,366.001,134.004,695,34.004c82.002-25,103.999-28.008,260-28.008
		C1102.998,5,1135,7.998,1202.998,27.998C1317.002,60.996,1395,95.996,1485,154.004C1684.004,285,1814.004,460,1885.996,695
		c26.006,84.004,28.008,102.002,28.008,265s-2.002,181.001-28.008,263.999C1785,1555,1552.002,1787.998,1225,1886.001
		c-77.002,22.998-110.996,26.997-240,28.999C887.002,1917.002,812.002,1913.999,770,1905z M893.999,1797.998
		c38.003-60,40-95,41.001-792.998c1.001-374.004-2.002-710-6.001-747.998c-5-37.002-16.997-87.998-28.999-114.004l-20-45.996
		l-42.998,7.002c-104.004,16.992-238.003,67.998-340,128.994l-49.004,30L495,285.996C635,357.002,738.999,470,785,599.004
		C827.002,717.998,832.002,795,836.001,1315c1.001,275,2.998,501.001,3.999,502.998c0,1.001,8.999,2.002,20,2.002
		S886.001,1810,893.999,1797.998z M1095,960V105l-35-2.998l-35-2.998l0.996,857.998c1.006,471.997,2.002,858.999,3.008,860.996
		c0,2.002,15.996,2.002,33.994,0L1095,1815V960z M736.001,1727.002c6.001-40,6.001-875,1.001-902.002
		c-3.003-10.996-8.003-45-12.002-75c-7.002-55-45-164.004-73.999-210c-53.003-87.002-210-230-252.002-230
		C373.999,310,230,477.002,230,505.996c0,4.004-7.002,15-13.999,23.008c-23.003,25-75,153.994-97.002,240
		C62.002,986.001,107.998,1226.001,247.998,1445c86.001,133.999,222.002,243.999,386.001,311.001
		C722.998,1792.002,727.002,1791.001,736.001,1727.002z M1325,1740c60-27.998,159.004-88.999,162.998-101.001
		c2.002-5,7.998-8.999,12.998-8.999c14.004,0,69.004-52.002,69.004-63.999c0-6.001-62.998-93.999-139.004-195l-137.998-183.003
		l80-146.997c42.998-80,94.004-173.003,111.006-206.001c17.998-32.998,66.992-122.998,108.994-200.996
		C1635.996,557.002,1670,487.998,1670,480.996c0-15-37.998-70.996-47.998-70.996c-4.004,0-20,25.996-37.002,57.002
		C1569.004,499.004,1542.998,545,1529.004,570C1515,595,1480,660,1450,715c-29.004,55-62.002,115-72.002,132.998
		c-35,62.998-112.002,207.002-122.002,229.004c-13.994,28.999-22.998,28.999-46.992,0.996c-20-22.998-20-20.996-14.004,277.002
		c5.996,342.002,4.004,315,17.002,377.002c8.994,43.999,10,45.996,35.996,37.998C1262.998,1766.001,1297.998,1752.002,1325,1740z
		 M1669.004,1451.001c11.992-16.001,20.996-33.003,20.996-37.002s7.002-15,14.004-22.998c21.992-25,71.992-147.002,95.996-236.001
		c24.004-87.998,32.998-242.002,19.004-302.002c-5-20.996-12.002-53.994-15-72.998c-3.008-19.004-11.006-44.004-17.002-55
		c-6.006-10.996-10-22.002-9.004-25c2.998-9.004-20-74.004-32.998-92.998c-10-15-20-2.002-75,100c-35,65-75.996,140.996-90,167.998
		c-15,27.998-57.998,105-95,172.998c-50,92.002-65,128.003-59.004,141.001c14.004,28.999,208.008,290,216.006,291.001
		C1645.996,1480,1657.998,1467.002,1669.004,1451.001z M1540,325c0-22.998-192.002-142.002-282.998-174.004
		c-27.002-10-29.004-7.998-45,27.002C1197.998,210,1195,269.004,1192.002,600l-2.998,385l175-325
		C1460.996,480.996,1540,330.996,1540,325z"/>
</g>
</svg>
